<svg width="89" height="18" viewBox="0 0 89 18" fill="none" xmlns="http://www.w3.org/2000/svg">
<rect width="47" height="18" rx="5" fill="#32EBB7"/>
<path d="M9.38 13.12C8.108 13.12 7.144 12.772 6.488 12.076C5.84 11.38 5.516 10.44 5.516 9.256C5.516 8.408 5.652 7.68 5.924 7.072C6.204 6.456 6.628 5.984 7.196 5.656C7.764 5.32 8.488 5.152 9.368 5.152C9.816 5.152 10.224 5.188 10.592 5.26C10.968 5.324 11.316 5.412 11.636 5.524V6.664C11.316 6.536 10.972 6.44 10.604 6.376C10.244 6.304 9.864 6.268 9.464 6.268C8.504 6.268 7.824 6.524 7.424 7.036C7.032 7.548 6.836 8.288 6.836 9.256C6.836 10.16 7.052 10.848 7.484 11.32C7.916 11.784 8.584 12.016 9.488 12.016C9.856 12.016 10.224 11.988 10.592 11.932C10.968 11.868 11.32 11.772 11.648 11.644V12.796C11.328 12.9 10.98 12.98 10.604 13.036C10.236 13.092 9.828 13.12 9.38 13.12ZM12.9162 13V7.312H14.1162L14.1882 7.972C14.4602 7.796 14.7842 7.636 15.1602 7.492C15.5362 7.348 15.9082 7.248 16.2762 7.192V8.188C16.0522 8.228 15.8082 8.288 15.5442 8.368C15.2882 8.44 15.0442 8.524 14.8122 8.62C14.5802 8.708 14.3842 8.8 14.2242 8.896V13H12.9162ZM18.0908 15.112C17.6588 15.112 17.2908 15.056 16.9868 14.944V13.972C17.1228 14.02 17.2468 14.052 17.3588 14.068C17.4788 14.084 17.5988 14.092 17.7188 14.092C17.9668 14.092 18.1668 14.052 18.3188 13.972C18.4708 13.892 18.6028 13.764 18.7148 13.588C18.8348 13.42 18.9628 13.2 19.0988 12.928L16.5668 7.312H17.9228L19.7468 11.536L21.5948 7.312H22.9388L20.6228 12.676C20.4228 13.156 20.2068 13.576 19.9748 13.936C19.7508 14.304 19.4868 14.592 19.1828 14.8C18.8868 15.008 18.5228 15.112 18.0908 15.112ZM23.9787 15.592V7.312H25.1067L25.1787 7.876C25.4347 7.644 25.7147 7.472 26.0187 7.36C26.3227 7.248 26.6827 7.192 27.0987 7.192C27.9147 7.192 28.5507 7.416 29.0067 7.864C29.4627 8.304 29.6907 9.036 29.6907 10.06C29.6907 11.084 29.4547 11.852 28.9827 12.364C28.5107 12.868 27.8667 13.12 27.0507 13.12C26.3627 13.12 25.7747 12.96 25.2867 12.64V15.592H23.9787ZM26.7147 12.136C27.8187 12.136 28.3707 11.44 28.3707 10.048C28.3707 9.376 28.2467 8.9 27.9987 8.62C27.7507 8.332 27.3347 8.188 26.7507 8.188C26.1667 8.188 25.6787 8.388 25.2867 8.788V11.632C25.4707 11.784 25.6747 11.908 25.8987 12.004C26.1307 12.092 26.4027 12.136 26.7147 12.136ZM33.135 13.12C32.527 13.12 32.071 12.96 31.767 12.64C31.471 12.312 31.323 11.868 31.323 11.308V8.332H30.483V7.312H31.323V6.004L32.619 5.608V7.312H34.131L34.047 8.332H32.619V11.236C32.619 11.564 32.695 11.796 32.847 11.932C32.999 12.06 33.247 12.124 33.591 12.124C33.807 12.124 34.035 12.084 34.275 12.004V12.928C33.963 13.056 33.583 13.12 33.135 13.12ZM37.9995 13.12C36.9755 13.12 36.2235 12.864 35.7435 12.352C35.2715 11.84 35.0355 11.108 35.0355 10.156C35.0355 9.204 35.2755 8.472 35.7555 7.96C36.2355 7.448 36.9835 7.192 37.9995 7.192C39.0235 7.192 39.7755 7.448 40.2555 7.96C40.7355 8.472 40.9755 9.204 40.9755 10.156C40.9755 11.108 40.7355 11.84 40.2555 12.352C39.7835 12.864 39.0315 13.12 37.9995 13.12ZM37.9995 12.016C38.5995 12.016 39.0235 11.872 39.2715 11.584C39.5275 11.288 39.6555 10.812 39.6555 10.156C39.6555 9.5 39.5275 9.028 39.2715 8.74C39.0235 8.452 38.5995 8.308 37.9995 8.308C37.4075 8.308 36.9835 8.452 36.7275 8.74C36.4795 9.028 36.3555 9.5 36.3555 10.156C36.3555 10.812 36.4795 11.288 36.7275 11.584C36.9835 11.872 37.4075 12.016 37.9995 12.016Z" fill="black" fill-opacity="0.7"/>
<path d="M55.48 13L52.528 5.272H53.884L56.2 11.596L58.516 5.272H59.872L56.944 13H55.48ZM62.9602 13.12C61.9682 13.12 61.2002 12.876 60.6562 12.388C60.1122 11.9 59.8402 11.152 59.8402 10.144C59.8402 9.232 60.0722 8.512 60.5362 7.984C61.0002 7.456 61.7042 7.192 62.6482 7.192C63.5122 7.192 64.1602 7.42 64.5922 7.876C65.0322 8.324 65.2522 8.904 65.2522 9.616V10.672H61.0882C61.1522 11.224 61.3522 11.604 61.6882 11.812C62.0242 12.02 62.5362 12.124 63.2242 12.124C63.5122 12.124 63.8082 12.096 64.1122 12.04C64.4162 11.984 64.6802 11.912 64.9042 11.824V12.784C64.6482 12.896 64.3522 12.98 64.0162 13.036C63.6882 13.092 63.3362 13.12 62.9602 13.12ZM61.0882 9.82H64.1002V9.424C64.1002 9.032 63.9922 8.728 63.7762 8.512C63.5602 8.288 63.1962 8.176 62.6842 8.176C62.0762 8.176 61.6562 8.308 61.4242 8.572C61.2002 8.836 61.0882 9.252 61.0882 9.82ZM68.3629 13.12C67.9709 13.12 67.5949 13.092 67.2349 13.036C66.8829 12.98 66.5909 12.912 66.3589 12.832V11.728C66.6309 11.832 66.9309 11.912 67.2589 11.968C67.5869 12.024 67.8989 12.052 68.1949 12.052C68.6429 12.052 68.9629 12.012 69.1549 11.932C69.3469 11.852 69.4429 11.696 69.4429 11.464C69.4429 11.296 69.3829 11.164 69.2629 11.068C69.1509 10.972 68.9789 10.884 68.7469 10.804C68.5229 10.724 68.2349 10.628 67.8829 10.516C67.5469 10.404 67.2549 10.284 67.0069 10.156C66.7589 10.02 66.5669 9.848 66.4309 9.64C66.2949 9.432 66.2269 9.16 66.2269 8.824C66.2269 8.304 66.4149 7.904 66.7909 7.624C67.1669 7.336 67.7709 7.192 68.6029 7.192C68.9309 7.192 69.2429 7.216 69.5389 7.264C69.8349 7.312 70.0869 7.372 70.2949 7.444V8.536C70.0709 8.448 69.8229 8.38 69.5509 8.332C69.2869 8.284 69.0389 8.26 68.8069 8.26C68.3909 8.26 68.0749 8.296 67.8589 8.368C67.6509 8.44 67.5469 8.584 67.5469 8.8C67.5469 9.024 67.6549 9.184 67.8709 9.28C68.0949 9.368 68.4509 9.492 68.9389 9.652C69.3869 9.788 69.7429 9.932 70.0069 10.084C70.2709 10.236 70.4589 10.42 70.5709 10.636C70.6909 10.844 70.7509 11.116 70.7509 11.452C70.7509 12.012 70.5469 12.432 70.1389 12.712C69.7309 12.984 69.1389 13.12 68.3629 13.12ZM72.5133 6.124V5.044H73.9413V6.124H72.5133ZM72.6213 13V8.308H71.7573L71.8773 7.312H73.9293V13H72.6213ZM78.1792 13.12C77.1552 13.12 76.4032 12.864 75.9232 12.352C75.4512 11.84 75.2152 11.108 75.2152 10.156C75.2152 9.204 75.4552 8.472 75.9352 7.96C76.4152 7.448 77.1632 7.192 78.1792 7.192C79.2032 7.192 79.9552 7.448 80.4352 7.96C80.9152 8.472 81.1552 9.204 81.1552 10.156C81.1552 11.108 80.9152 11.84 80.4352 12.352C79.9632 12.864 79.2112 13.12 78.1792 13.12ZM78.1792 12.016C78.7792 12.016 79.2032 11.872 79.4512 11.584C79.7072 11.288 79.8352 10.812 79.8352 10.156C79.8352 9.5 79.7072 9.028 79.4512 8.74C79.2032 8.452 78.7792 8.308 78.1792 8.308C77.5872 8.308 77.1632 8.452 76.9072 8.74C76.6592 9.028 76.5352 9.5 76.5352 10.156C76.5352 10.812 76.6592 11.288 76.9072 11.584C77.1632 11.872 77.5872 12.016 78.1792 12.016ZM82.4279 13V7.312H83.6279L83.6879 7.912C83.9439 7.712 84.2479 7.544 84.5999 7.408C84.9599 7.264 85.3559 7.192 85.7879 7.192C86.5239 7.192 87.0599 7.364 87.3959 7.708C87.7319 8.052 87.8999 8.588 87.8999 9.316V13H86.6039V9.376C86.6039 8.936 86.5119 8.628 86.3279 8.452C86.1519 8.276 85.8159 8.188 85.3199 8.188C85.0239 8.188 84.7319 8.248 84.4439 8.368C84.1639 8.488 83.9279 8.644 83.7359 8.836V13H82.4279Z" fill="#B9BCCD"/>
</svg>
