<svg width="123" height="42" viewBox="0 0 123 42" fill="none" xmlns="http://www.w3.org/2000/svg">
<path d="M39.4381 22.7481C39.2256 23.3192 38.9982 23.8732 38.8141 24.4471C38.5828 25.1672 38.2151 25.7304 37.4563 25.9503C37.13 26.0536 36.855 26.2809 36.6879 26.5851C35.9879 27.7142 34.8917 28.217 33.6606 28.4107C32.6364 28.5717 31.5958 28.6241 30.5627 28.7283C30.4275 28.7338 30.294 28.762 30.1677 28.8116C29.466 29.1404 28.7859 29.0474 28.0614 28.8376C27.3951 28.6455 26.6777 28.6307 25.997 28.5026C25.5463 28.4166 25.1079 28.2655 24.6656 28.1357C24.6326 28.128 24.6015 28.1137 24.5739 28.0937C24.5464 28.0736 24.523 28.0482 24.5052 28.0189C24.3565 27.6208 23.9894 27.5534 23.6709 27.388C23.4487 27.2696 23.289 27.0237 23.1117 26.8259C22.9999 26.7001 22.9332 26.5215 22.8039 26.4245C22.2624 26.019 22.1104 25.4796 22.2407 24.8392C22.3575 24.2661 22.419 23.6701 22.6233 23.1304C22.7758 22.7258 23.1062 22.39 23.3694 22.0382C23.5615 21.7685 23.7731 21.5138 24.0023 21.2762C24.1892 21.1128 24.3916 20.969 24.6067 20.8469C24.9466 20.6294 25.2937 20.4162 25.6387 20.2018C25.801 20.0773 25.9772 19.9731 26.1636 19.8913C26.8974 19.6553 27.6307 19.4177 28.3776 19.2381C28.8686 19.1147 29.3875 19.192 29.8233 19.4537C30.1866 19.6653 30.5961 19.7807 31.0142 19.7892C31.4467 19.8086 31.855 19.9981 32.1535 20.3181C32.452 20.6382 32.6175 21.0637 32.6152 21.5056C32.6188 21.7862 32.6132 22.0615 32.6443 22.3346C32.6817 22.6616 32.884 22.7767 33.1374 22.582C33.3326 22.4182 33.4889 22.2112 33.5943 21.9768C33.7113 21.7338 33.7357 21.4446 33.8365 21.1892C34.0481 20.6511 33.9349 20.1638 33.6212 19.7198C33.4337 19.4602 33.2232 19.2187 32.9924 18.9984C32.6156 18.637 32.2271 18.2842 31.8357 17.9365C31.4793 17.6258 31.032 17.4444 30.5638 17.4209C29.7993 17.3687 29.0323 17.333 28.267 17.3207C28.0416 17.33 27.8211 17.3903 27.6214 17.4973C27.2071 17.7016 26.7921 17.7912 26.3434 17.6438C25.8947 17.4964 25.5005 17.5565 25.1452 17.9362C24.7647 18.3511 24.2729 18.6425 23.7312 18.7741C23.2794 18.8879 22.8647 19.1603 22.439 19.3703C22.3669 19.404 22.3079 19.4615 22.2716 19.5335C22.1013 19.9456 21.7561 20.153 21.4039 20.3729C21.0516 20.5929 20.7127 20.9195 20.6732 21.3656C20.6156 22.0126 20.3066 22.5227 19.9521 23.0143C19.6783 23.3946 19.6405 23.7414 19.7901 24.2028C19.9157 24.5887 19.8889 25.0436 19.8496 25.4605C19.8116 25.8461 19.8428 26.1696 20.1402 26.4325C20.2644 26.5357 20.3525 26.6771 20.3914 26.8356C20.4304 26.9941 20.4181 27.1612 20.3564 27.3119C20.3062 27.4664 20.297 27.6318 20.3299 27.7911C20.3627 27.9504 20.4364 28.098 20.5434 28.2187C21.0202 28.8587 21.7061 29.3029 22.4765 29.4707C22.8386 29.5477 23.1879 29.6775 23.5136 29.8563C24.1415 30.2152 24.7626 30.5186 25.5149 30.5176C25.8971 30.5173 26.2768 30.7118 26.6622 30.7927C26.8388 30.8072 27.0161 30.8088 27.1929 30.7977C27.5516 30.7961 27.91 30.8212 28.2652 30.8726C28.6714 30.9754 29.0976 30.9604 29.4959 30.8291C29.9524 30.6636 30.4144 30.5655 30.9208 30.7219C31.1402 30.7899 31.4784 30.7009 31.6737 30.5583C32.1873 30.1954 32.7346 30.0792 33.3412 30.0899C33.5994 30.101 33.8571 30.0564 34.0974 29.959C34.9217 29.587 35.7299 29.1762 36.5388 28.7783C36.6339 28.7165 36.7355 28.6656 36.8416 28.6267C38.0706 28.3497 38.9718 27.4993 39.9379 26.7707C40.1594 26.6033 40.2855 26.296 40.4422 26.043C40.7782 25.4973 41.0971 24.9527 41.6228 24.5467C41.8687 24.3532 41.9942 23.9843 42.1542 23.6845C42.3828 23.2538 42.5185 22.7461 42.8258 22.3911C43.6704 21.414 43.7598 20.3442 43.3335 19.1948C43.1045 18.5676 42.9766 17.9067 42.9547 17.2378C42.9347 16.6338 42.7783 16.0427 42.4974 15.5107C42.2166 14.9787 41.819 14.5202 41.3357 14.1711C40.3797 13.4685 39.438 12.7743 38.6409 11.8728C37.9972 11.1439 37.1426 10.8505 36.1657 10.882C35.5468 10.9003 35.0347 10.5539 34.6003 10.1447C33.7822 9.37436 32.7833 9.04192 31.7303 8.83638C31.4731 8.80496 31.2122 8.84046 30.972 8.93959C30.7882 9.01477 30.5909 9.04944 30.3931 9.04132C30.1952 9.0332 30.0013 8.98248 29.824 8.89249C29.7175 8.8395 29.6105 8.81403 29.5092 8.76406C29.3472 8.67124 29.1618 8.62959 28.9766 8.64441C28.7914 8.65923 28.6147 8.72984 28.4688 8.84729C28.0157 9.17723 27.5003 9.40745 26.9554 9.52336C26.4105 9.63926 25.8479 9.63831 25.3034 9.52057C24.9681 9.4386 24.6202 9.42499 24.2798 9.48053C23.9393 9.53608 23.613 9.65968 23.3194 9.84425C22.7392 10.1908 22.0784 10.3719 21.4062 10.3684C20.7123 10.3812 20.0351 10.5881 19.4484 10.9665C18.2965 11.7128 16.9797 12.1525 15.6185 12.2454C15.4306 12.2505 15.2472 12.3048 15.0858 12.4031C14.9244 12.5013 14.7904 12.6402 14.6967 12.8065C14.4559 13.2415 14.1177 13.6121 13.7096 13.8879C13.3015 14.1637 12.8352 14.3369 12.3488 14.3933C11.2106 14.5483 10.4319 15.1966 9.82797 16.1316C9.67815 16.3645 9.47731 16.5587 9.24133 16.6988C9.00534 16.8389 8.74067 16.921 8.46823 16.9388C8.04156 16.9839 7.70902 17.1208 7.45681 17.5209C7.31929 17.735 7.02485 17.8721 6.7745 17.9794C6.33944 18.1673 6.11118 18.5201 5.95403 18.9331C5.86151 19.1783 5.80002 19.4345 5.77103 19.6956C5.69255 20.4181 5.24553 20.8273 4.64819 21.0922C4.11707 21.3292 3.78163 21.6594 3.86558 22.3021C3.87169 22.4184 3.83473 22.5328 3.76204 22.6226C3.28887 23.1794 2.83365 23.755 2.31367 24.2619C1.91231 24.6506 1.36902 24.4196 1.30924 23.8788C1.2996 23.7297 1.32845 23.5805 1.3929 23.4463C1.72662 22.7043 2.0466 21.9529 2.4255 21.2348C2.83115 20.467 3.29177 19.7274 3.74405 18.9857C3.83445 18.8541 3.95397 18.7461 4.09291 18.6704C5.12744 18.0644 5.76721 17.078 6.46742 16.144C6.66731 15.8774 6.91298 15.5975 7.20097 15.4622C8.4939 14.8188 9.66772 13.9514 10.6703 12.8986C10.7145 12.846 10.766 12.8004 10.8233 12.7631C11.4838 12.3962 12.1231 11.975 12.8136 11.6829C13.5688 11.3633 14.269 10.9961 14.798 10.3455C15.1035 9.98283 15.5214 9.73769 15.9822 9.65084C16.7101 9.48795 17.4332 9.29991 18.1615 9.13867C18.337 9.09355 18.5202 9.08962 18.6974 9.12719C19.7248 9.40681 20.6687 9.11775 21.5947 8.71088C21.9533 8.56896 22.2971 8.39093 22.6211 8.17941C23.0763 7.85716 23.5615 7.83394 24.0793 7.88566C24.3372 7.91278 24.5971 7.91531 24.8554 7.89322C24.9119 7.88632 24.9659 7.86566 25.0128 7.83299C25.0598 7.80032 25.0984 7.7566 25.1253 7.70552C25.1249 7.64503 25.1097 7.58561 25.081 7.53269C25.0523 7.47977 25.0111 7.43504 24.9611 7.40259C24.75 7.29672 24.5181 7.24148 24.2829 7.24109C23.6626 7.29332 23.075 7.26597 22.5143 6.93552C22.3783 6.85934 22.2238 6.8244 22.069 6.83483C21.9142 6.84526 21.7656 6.90061 21.6406 6.99437C21.1184 7.34115 20.5989 7.32607 20.0276 7.10358C19.7108 6.97301 19.3687 6.91875 19.0281 6.94501C18.6874 6.97127 18.3572 7.07735 18.0632 7.25501C17.9327 7.32147 17.7956 7.37375 17.6544 7.41097C17.1696 7.56534 16.6847 7.71826 16.1997 7.86974C16.0816 7.90735 15.9506 8.00145 15.8499 7.9769C15.6513 7.91557 15.4144 7.83027 15.2997 7.67357C15.1591 7.48071 15.2723 7.23963 15.4798 7.11402C15.7187 6.96656 15.9821 6.85302 16.2364 6.72433C16.7005 6.49233 17.1782 6.28223 17.6245 6.01889C17.936 5.83481 18.2309 5.73562 18.5878 5.82341C19.3063 6.00035 19.986 5.98309 20.6399 5.54821C20.8759 5.41917 21.1459 5.37005 21.411 5.40796C22.2891 5.50399 23.1767 5.4553 24.0398 5.26373C24.4353 5.18209 24.8437 5.19197 25.2349 5.29265C26.1618 5.54852 27.124 5.64491 28.082 5.57785C29.5289 5.47522 30.9024 5.84736 32.2477 6.37555C32.613 6.51843 33.0397 6.49972 33.4396 6.55016C33.6729 6.57904 33.922 6.55594 34.1395 6.62978C34.8166 6.85336 35.4666 7.11526 36.0193 7.6192C36.6754 8.21756 37.4715 8.58782 38.323 8.8264C38.8594 8.95734 39.3878 9.11998 39.9057 9.31349C40.4907 9.55519 40.973 9.94243 41.1785 10.6067C41.2434 10.775 41.3552 10.9203 41.5001 11.0246C42.0628 11.4481 42.6409 11.8515 43.2123 12.262C43.2446 12.2946 43.2815 12.322 43.3219 12.3433C43.4747 12.3916 43.6956 12.5148 43.7706 12.4545C43.8281 12.3906 43.8722 12.3153 43.9 12.2332C43.9279 12.1512 43.939 12.0642 43.9325 11.9776C43.9011 11.4856 43.7609 11.0534 43.3463 10.713C42.7052 10.2061 42.2713 9.47444 42.1283 8.6597C41.9867 7.87998 41.4691 7.31172 40.8133 6.93222C40.1575 6.55272 39.5808 6.12511 39.1894 5.46138C39.1052 5.33869 38.9971 5.23511 38.8717 5.15717C38.3407 4.78855 37.7912 4.44798 37.2727 4.06446C36.1349 3.22262 34.8511 2.67497 33.5844 2.08999C33.4439 2.04334 33.3126 1.97163 33.1966 1.8782C33.0729 1.74959 32.8867 1.52151 32.9279 1.42461C33.0046 1.2456 33.2123 1.03517 33.3906 1.00936C33.739 0.97738 34.0899 0.991798 34.4347 1.05225C35.3633 1.14833 36.2436 1.52177 36.9654 2.12585C37.3453 2.44307 37.8454 2.64445 38.3242 2.8013C39.44 3.18035 40.3647 3.77679 40.9184 4.87461C40.9825 4.99678 41.0763 5.10004 41.1909 5.17444C42.4981 5.9991 43.3848 7.24863 44.3124 8.45257C44.3202 8.4611 44.3261 8.47123 44.3297 8.48227C44.6343 9.54052 45.356 10.3293 45.9516 11.2109C46.6415 12.2344 47.016 13.3909 46.779 14.6856C46.7165 15.0373 46.7869 15.4144 46.812 15.7802C46.8436 16.2068 46.8961 16.6277 46.9187 17.0532C46.9403 17.6234 46.7812 18.1855 46.465 18.6561C46.1816 19.1018 46.1 19.5885 46.0999 20.1121C46.1059 20.5038 46.0889 20.8956 46.0489 21.2853C46.0215 21.5743 45.9368 21.8545 45.7999 22.109C45.663 22.3635 45.4768 22.5869 45.2525 22.7656C45.0437 22.9356 44.8698 23.1461 44.741 23.3849C44.6122 23.6238 44.531 23.8864 44.5021 24.1574C44.4431 24.6975 44.2682 25.2176 43.9899 25.6809C43.7116 26.1441 43.3368 26.5391 42.892 26.8377C42.4849 27.1256 42.1036 27.4524 41.7121 27.7634C40.9858 28.3408 40.2565 28.9137 39.5366 29.4991C38.7794 30.114 37.8785 30.4019 36.9692 30.6321C36.433 30.7665 35.9165 30.9725 35.433 31.2447C34.6488 31.6761 33.8019 31.9762 32.9245 32.1338C32.5322 32.2076 32.1706 32.4875 31.8157 32.7073C31.6755 32.8045 31.5136 32.8641 31.345 32.8808C31.1763 32.8974 31.0062 32.8706 30.8503 32.8027C30.6357 32.7308 30.4172 32.6718 30.1959 32.6259C30.0998 32.5911 29.996 32.5855 29.8969 32.6096C29.7978 32.6337 29.7077 32.6866 29.6373 32.7618C29.5294 32.8607 29.3896 32.9157 29.2445 32.9161C28.7847 32.8944 28.3267 32.8237 27.8655 32.7997C27.135 32.755 26.4034 32.7458 25.6739 32.6919C25.2971 32.6634 24.8962 32.6389 24.5586 32.4928C23.934 32.2222 23.3016 32.0306 22.6261 32.0308C22.0412 32.0301 21.5694 31.8342 21.2215 31.3423C20.9161 30.9172 20.4702 30.7408 20.0082 30.5688C19.4577 30.3654 18.9217 30.1235 18.4039 29.8448C17.9863 29.6182 17.7558 29.208 17.6873 28.7262C17.6357 28.2783 17.4527 27.8569 17.1623 27.5172C16.9457 27.2841 16.8035 26.9894 16.7545 26.6721C16.7055 26.3548 16.752 26.0297 16.8878 25.74C17.1379 25.1922 17.2066 24.5762 17.0836 23.9851C16.9791 23.4946 17.1554 23.0526 17.4223 22.6458C17.6289 22.3289 17.8819 22.0407 18.0643 21.711C18.2264 21.4367 18.3385 21.1347 18.3952 20.8197C18.4139 20.6303 18.471 20.4469 18.5629 20.2812C18.6547 20.1155 18.7793 19.9711 18.9288 19.8571C19.1625 19.657 19.4214 19.4897 19.6986 19.3596C20.2827 19.1301 20.7127 18.722 21.0919 18.2422C21.3949 17.8462 21.8317 17.5797 22.3169 17.4949C22.6346 17.4301 22.9151 17.1609 23.2055 16.9755C23.5176 16.7807 23.811 16.5442 24.1423 16.3926C24.8162 16.0736 25.5067 15.7925 26.2108 15.5506C26.5674 15.4545 26.9395 15.4335 27.3044 15.489C28.2347 15.593 29.1682 15.7058 30.0857 15.8928C30.8772 16.0715 31.6592 16.292 32.4284 16.5534C32.6207 16.6138 32.7887 16.7824 32.9425 16.9302C33.433 17.4017 33.8908 17.9068 34.4009 18.3606C34.7241 18.6527 34.9965 18.9261 35.0132 19.4177C35.0198 19.6472 35.2062 19.8699 35.3091 20.1005C35.3892 20.2869 35.5443 20.4855 35.5239 20.6615C35.4397 21.382 35.326 22.1088 34.8908 22.7143C34.7356 22.9307 34.5018 23.0909 34.2955 23.2673C34.0559 23.4715 33.7878 23.6463 33.5676 23.8717C32.7242 24.7343 31.6453 25.3168 30.4721 25.5429C30.1237 25.6161 29.7311 25.4419 29.3584 25.3796C29.1188 25.34 28.8806 25.286 28.641 25.2562C28.4513 25.2321 28.2583 25.2381 28.0672 25.2286C27.6323 25.2063 27.3571 25.0246 27.2845 24.5404C27.2578 24.3464 27.0839 24.1715 26.9583 23.993C26.8149 23.7859 26.5414 23.5941 26.5314 23.3849C26.5147 23.1765 26.546 22.9669 26.6227 22.773C26.6995 22.5791 26.8196 22.4062 26.9735 22.2681C27.0628 22.1978 27.1434 22.1168 27.2137 22.0268C27.2402 21.993 27.2593 21.9537 27.2696 21.9118C27.2799 21.8698 27.2812 21.826 27.2735 21.7835C27.2519 21.7477 27.2218 21.7179 27.1861 21.6969C27.1504 21.6758 27.1101 21.6641 27.0689 21.6629C26.8129 21.7343 26.5681 21.8423 26.3417 21.9836C26.0348 22.1933 25.7598 22.4478 25.5255 22.7392C25.2394 23.0951 25.0107 23.4954 24.8481 23.9248C24.5232 24.885 24.611 25.0676 25.3924 25.7147C25.5118 25.8026 25.6117 25.9152 25.6858 26.045C25.9408 26.588 26.3971 26.8207 26.9325 26.9622C27.3773 27.085 27.8155 27.2486 28.2674 27.3422C28.9563 27.4822 29.6482 27.5543 30.2889 27.1186C30.4618 27.0165 30.6632 26.9764 30.861 27.0045C32.3742 27.2237 33.5956 26.6901 34.6283 25.5663C34.9349 25.2317 35.3604 25.0076 35.7448 24.755C35.9247 24.6572 36.1121 24.5743 36.3051 24.5073C36.8246 24.2787 37.187 23.913 37.2812 23.3195C37.3751 22.7588 37.611 22.2329 37.9654 21.7939C38.3326 21.328 38.3782 20.7964 38.2585 20.2217C38.1683 19.8291 38.121 19.4276 38.1171 19.0243C38.1296 18.0568 37.6758 17.3925 36.9157 16.8791C36.615 16.6989 36.3493 16.464 36.1317 16.1859C35.5394 15.3202 34.7065 14.9645 33.7248 14.9151C33.3278 14.8948 32.9468 14.7491 32.6345 14.4982C31.9586 13.9829 31.2188 13.7906 30.3611 13.7656C28.9217 13.7223 27.5242 13.9376 26.1169 14.1583C25.6409 14.2329 25.1448 14.1885 24.6678 14.2527C24.2949 14.3017 23.8973 14.3654 23.5746 14.5429C23.057 14.8284 22.533 15.0432 21.947 15.0878C21.7039 15.0998 21.4673 15.1718 21.2575 15.2978C21.0476 15.4238 20.871 15.5999 20.7426 15.811C20.5518 16.0656 20.3188 16.2842 20.054 16.4566C19.7121 16.6994 19.3214 16.8716 18.9819 17.1171C18.7778 17.2656 18.6308 17.4965 18.4591 17.6892C18.2001 17.971 17.9714 18.2958 17.6694 18.5161C17.2292 18.8361 16.8766 19.17 16.7531 19.7406C16.7052 19.9978 16.5993 20.2402 16.4438 20.4485C16.2883 20.6569 16.0875 20.8254 15.8572 20.9409C15.7961 20.9717 15.7419 21.0121 15.6831 21.0485C14.8526 21.552 14.8183 21.6126 14.9711 22.5702C15.0147 22.7778 15.0057 22.9933 14.9448 23.1963C14.884 23.3992 14.7733 23.583 14.6234 23.7301C14.0946 24.2958 13.8247 25.0239 13.7087 25.7813C13.6654 26.0677 13.8404 26.3951 13.9402 26.6962C14.1037 27.1936 14.3657 27.6711 14.4474 28.1802C14.6776 29.6138 15.3039 30.7014 16.66 31.307C17.0742 31.4913 17.4275 31.829 17.794 32.1146C18.5438 32.6989 19.4284 33.0763 20.3626 33.2105C21.056 33.3184 21.6967 33.5413 22.255 33.9943C22.8968 34.5118 23.6544 34.4653 24.4004 34.391C25.2518 34.3065 26.0603 34.3944 26.8413 34.7864C27.0754 34.9071 27.3331 34.9724 27.5953 34.9774C27.8575 34.9824 28.1174 34.9271 28.3557 34.8155C28.7942 34.6249 29.2726 34.5496 29.747 34.5965C30.6864 34.6821 31.6205 34.7118 32.504 34.2618C32.6913 34.18 32.8937 34.1406 33.0973 34.1463C34.1445 34.1354 35.1366 33.9179 36.046 33.369C36.5508 33.0676 37.0671 32.7842 37.5882 32.512C37.7884 32.4071 38.002 32.3314 38.2228 32.2872C39.3825 32.0601 40.4566 31.5058 41.3232 30.687C41.7667 30.2815 42.2741 29.9553 42.824 29.7221C43.4409 29.466 43.9696 29.1439 44.383 28.6132C44.7057 28.1958 45.1177 27.8594 45.5875 27.6296C45.8685 27.4843 46.1001 27.2557 46.2517 26.9738C46.578 26.2957 47.138 25.7643 47.8243 25.4816C48.486 25.1977 49.0414 24.7052 49.4093 24.0761C49.6091 23.7565 49.9762 23.5175 50.3104 23.3175C50.9787 22.9176 51.4206 22.3968 51.6285 21.6071C51.728 21.2285 52.0479 20.8655 52.3487 20.5944C53.0125 20.0166 53.4802 19.2394 53.6851 18.3739C53.8573 17.715 54.3092 17.1332 54.6283 16.5135C54.7836 16.2124 54.9785 15.9136 55.0526 15.5896C55.305 14.485 55.5256 13.3617 55.7352 12.2458C55.7562 12.0776 55.7235 11.9069 55.6421 11.7592C55.5504 11.6125 55.4992 11.4433 55.4941 11.2693C55.4889 11.0954 55.53 10.9233 55.6128 10.7713C55.6842 10.6282 55.7278 10.4714 55.7877 10.3173C55.9033 10.0164 56.1064 9.84083 56.4362 9.87509C56.5859 9.88436 56.7259 9.95347 56.8259 10.0674C56.9259 10.1814 56.9779 10.331 56.9706 10.4838C56.966 11.3626 57.1064 12.2433 56.8113 13.1195C56.6813 13.5038 56.7473 13.9563 56.7371 14.382C56.707 15.1998 56.7055 16.0178 56.6417 16.8325C56.6226 17.0761 56.464 17.3252 56.3232 17.5403C56.0667 17.9336 55.7607 18.2936 55.5062 18.6881C55.3864 18.8951 55.2898 19.1152 55.2183 19.3442C54.9303 20.1187 54.6712 20.9047 54.3596 21.668C54.1265 22.2315 53.8614 22.7807 53.5657 23.3127C53.2581 23.871 52.7631 24.2324 52.2112 24.5255C51.9828 24.653 51.7703 24.8084 51.5784 24.9881C50.6719 25.802 49.7773 26.6311 48.8683 27.4421C48.7308 27.5595 48.5684 27.6426 48.394 27.6848C47.3772 27.9365 46.6301 28.5699 45.9922 29.3791C45.7508 29.6973 45.4823 29.9929 45.1897 30.2625C44.7507 30.6613 44.2873 31.031 43.8022 31.3695C43.4343 31.622 43.0121 31.7896 42.6174 32.0026C42.4599 32.088 42.3152 32.1991 42.16 32.2901C41.774 32.5166 41.3709 32.7205 40.999 32.9679C40.5519 33.2614 40.1324 33.5713 39.6999 33.8873C39.6126 33.9414 39.5381 34.0145 39.4819 34.1015C39.4224 34.2314 39.3736 34.3661 39.3359 34.5042C39.4861 34.5426 39.6488 34.6385 39.7841 34.6068C40.1253 34.5294 40.4487 34.3774 40.7838 34.2866C41.3058 34.15 41.8361 34.0447 42.3583 33.9151C42.513 33.8847 42.6629 33.8324 42.8036 33.7598C43.5896 33.3108 44.3737 32.858 45.1492 32.3917C45.4269 32.2239 45.6717 32.0033 45.9481 31.8306C46.1447 31.7097 46.397 31.669 46.5701 31.5245C46.9164 31.2356 47.2146 30.9086 47.6421 30.7051C47.9546 30.5578 48.1797 30.2226 48.4571 29.9878C48.7107 29.7807 48.9699 29.5853 49.2356 29.3979C49.483 29.2234 49.7445 29.0698 49.9938 28.8992C50.2 28.7589 50.399 28.6074 50.6008 28.4603C51.2413 27.9938 51.8548 27.4808 52.53 27.071C53.2273 26.6463 53.5745 25.989 53.9352 25.3103C54.1159 24.9897 54.3133 24.6793 54.5267 24.3804C54.6092 24.255 54.7318 24.1627 54.8736 24.1192C55.0153 24.0758 55.1675 24.0839 55.304 24.1422C55.6135 24.28 55.7007 24.589 55.5287 24.8859C55.3101 25.2724 55.0817 25.6545 54.8852 26.0525C54.4654 26.8984 53.9416 27.6508 53.18 28.2158C53.0731 28.3174 52.9752 28.4284 52.8873 28.5475C52.6087 28.847 52.3376 29.1551 52.0407 29.4412C51.6459 29.8184 51.2112 30.1527 50.8348 30.5409C50.3882 31.0047 49.8887 31.362 49.2696 31.5278C48.9222 31.6211 48.698 31.8413 48.4799 32.1305C48.2333 32.44 47.9426 32.7099 47.6176 32.9314C47.2382 33.2027 46.8352 33.4379 46.4138 33.6341C45.9458 33.8512 45.4486 34.0067 44.9608 34.1816C44.8343 34.2268 44.6717 34.2103 44.5714 34.2863C43.8385 34.839 42.9455 34.9561 42.1168 35.249C42.0401 35.2681 41.966 35.297 41.8963 35.3349C41.0238 35.9125 40.0048 36.0835 39.0445 36.4089C38.6911 36.5249 38.3164 36.5571 37.949 36.5028C36.8727 36.331 35.7729 36.395 34.7227 36.6904C33.8338 36.9217 32.9147 37.0089 31.9993 36.9487C31.4303 36.9198 30.8536 37.0325 30.2804 37.0931C28.5908 37.2727 26.9428 37.1301 25.352 36.4739C24.5941 36.1624 23.7741 36.0407 22.9606 36.1189C22.4395 36.161 21.9166 36.0636 21.4437 35.8363C20.5907 35.4436 19.7349 35.0535 18.8813 34.6618C18.5225 34.4978 18.1806 34.5427 18.0921 34.7691C18.0036 34.9955 18.2162 35.3143 18.5515 35.4813C18.9098 35.6497 19.2557 35.8442 19.5866 36.0634C20.2584 36.5395 21.0289 36.8506 21.8379 36.9724C22.5269 37.0611 23.1747 37.3561 23.6996 37.8202C24.1205 38.1978 24.6424 38.3243 25.1685 38.3879C25.9945 38.4821 26.7879 38.77 27.4869 39.2291C27.7776 39.4171 28.1631 39.4591 28.5124 39.541C29.1046 39.6783 29.7055 39.7762 30.2936 39.9306C30.5407 39.9954 30.8058 40.1489 30.7773 40.4719C30.7488 40.7949 30.495 40.9517 30.2177 40.9958C29.8192 41.0724 29.414 41.1058 29.0086 41.0951C28.1353 41.0646 27.2781 40.847 26.4926 40.4563C26.2338 40.338 25.9623 40.2513 25.6835 40.1982C25.1442 40.0711 24.6227 39.9365 24.125 39.6515C23.7649 39.4463 23.2915 39.4584 22.8932 39.3086C22.4199 39.1299 21.9787 38.863 21.5094 38.67C21.2626 38.5625 20.998 38.5039 20.7298 38.4974C20.0246 38.4996 19.4155 38.3342 18.9611 37.7336C18.8428 37.5931 18.6879 37.4898 18.5144 37.4356C18.2201 37.3474 17.9469 37.1979 17.7121 36.9965C17.4773 36.795 17.286 36.5461 17.1502 36.2654C17.0665 36.0896 16.9479 35.9336 16.802 35.8071C16.6561 35.6806 16.486 35.5864 16.3026 35.5305C15.4822 35.249 14.7716 34.8023 14.3055 34.0152C14.2012 33.8638 14.0631 33.74 13.9027 33.6539C13.2887 33.292 12.9372 32.8064 13.0398 32.0438C13.0986 31.6189 12.9046 31.3179 12.5463 31.0998C12.1895 30.9001 11.844 30.6797 11.5116 30.4399C10.9344 29.9939 10.7597 29.5791 11.0896 28.9379C11.5496 28.0475 11.3686 27.2724 10.9397 26.4821C10.6223 25.9024 10.6947 25.427 11.1146 24.9043C11.4188 24.4923 11.6506 24.0295 11.7995 23.5365C11.9854 22.986 12.0759 22.4015 12.1937 21.8289C12.2144 21.7297 12.1661 21.6149 12.1501 21.508C12.0464 21.5346 11.9267 21.5365 11.8429 21.5929C11.2624 21.9848 10.7437 22.4339 10.4197 23.0911C10.3195 23.2924 10.0935 23.4266 9.94017 23.6036C9.79075 23.7536 9.65873 23.9207 9.5467 24.1015C9.32062 24.5253 9.12729 24.9684 8.91554 25.4007C8.74275 25.7674 8.46011 26.0686 8.10852 26.2606C7.94594 26.3411 7.81476 26.4753 7.73622 26.6414C7.56421 27.1361 7.42891 27.6454 7.30051 28.1546C7.15212 28.7426 7.19189 29.3356 7.24582 29.9398C7.29976 30.5439 7.23931 31.1308 7.22117 31.7273C7.21389 31.8654 7.19182 32.0023 7.15534 32.1355C7.08748 32.4074 6.97061 32.6575 6.64536 32.6343C6.32011 32.6111 6.08542 32.4882 5.98846 32.1386C5.91722 31.8738 5.78083 31.6277 5.71281 31.362C5.63604 31.1368 5.60769 30.8973 5.6297 30.6599C5.78495 29.7872 5.83313 28.8983 5.77314 28.0135C5.72272 27.3492 5.80675 26.6814 6.01999 26.0517C6.23324 25.422 6.57115 24.8438 7.0127 24.3531C7.39446 23.9194 7.61917 23.3388 7.90589 22.8198C8.15993 22.3707 8.35143 21.8777 8.64898 21.4626C8.90415 21.1146 9.21723 20.815 9.57394 20.5775C10.0258 20.2756 10.3966 19.9287 10.5936 19.414C10.8032 18.8649 11.1704 18.4811 11.6463 18.1487C12.1464 17.8001 12.5713 17.3431 13.051 16.9629C13.3366 16.7458 13.6412 16.5561 13.961 16.3962C14.555 16.0889 15.1608 15.8067 15.7617 15.5161C16.3589 15.2397 16.9011 14.8535 17.3612 14.3767C17.6361 14.0861 18.0645 13.9389 18.4373 13.7575C18.81 13.5761 19.1764 13.4759 19.5265 13.2937C20.0093 13.0406 20.5086 12.867 21.0522 12.8949C21.5958 12.9228 22.1059 12.8363 22.557 12.4921C23.0417 12.1177 23.65 12.1614 24.2045 12.0133C24.4125 11.9666 24.6156 11.8998 24.8112 11.8138C25.3711 11.5477 25.9204 11.4063 26.5472 11.5668C27.6877 11.8662 28.8839 11.8664 30.0245 11.5675C31.1707 11.2681 32.2863 11.5078 33.3553 11.9985C34.521 12.5281 35.6928 13.0446 36.8593 13.5705C37.9309 14.0543 38.6974 14.8194 39.136 15.9566C39.3225 16.4113 39.6043 16.8188 39.9615 17.1506C40.2258 17.3795 40.424 17.6775 40.5349 18.0127C40.6457 18.348 40.665 18.7077 40.5907 19.0532C40.4499 19.881 40.3246 20.7152 40.1238 21.5285C40.0133 21.9772 39.7599 22.3891 39.5705 22.8179L39.4381 22.7481Z" fill="#4F5C5F"/>
<path d="M50.3978 19.2121C50.2422 19.5716 50.0596 20.0391 49.8379 20.4865C49.7477 20.6833 49.6057 20.8508 49.4278 20.9703C49.3475 21.0127 49.259 21.0363 49.1686 21.0397C49.0783 21.043 48.9884 21.0259 48.9053 20.9896C48.8237 20.937 48.7543 20.8671 48.7016 20.7846C48.6489 20.7021 48.6142 20.609 48.5999 20.5117C48.5883 20.1149 48.6315 19.7128 48.9414 19.3941C49.0418 19.2889 49.0773 19.108 49.1186 18.9554C49.2234 18.5674 49.2982 18.17 49.416 17.7855C49.5339 17.4009 49.8753 17.2846 50.2183 17.5201C50.8176 17.9318 50.8911 18.4194 50.3978 19.2121Z" fill="#4F5C5F"/>
<path d="M51.0847 15.3444C50.8767 15.712 50.5424 15.8882 50.2893 15.8171C50.0362 15.7459 49.8818 15.4376 49.8927 15.0541C49.9097 14.5754 49.891 14.0923 49.9369 13.618C49.949 13.3796 50.0331 13.1509 50.1776 12.9632C50.3499 12.7958 50.5749 12.6964 50.8124 12.6828C51.088 12.6781 51.171 12.9582 51.2233 13.2034C51.3881 13.9565 51.2731 14.6881 51.0847 15.3444Z" fill="#4F5C5F"/>
<path d="M35.0315 41.6462C34.7365 41.7578 34.4768 41.9516 34.2335 41.9307C33.5748 41.8669 32.9215 41.7547 32.2787 41.5948C32.145 41.5634 32.0063 41.295 31.9771 41.1246C31.9522 40.997 31.9764 40.8645 32.0447 40.7546C32.113 40.6447 32.22 40.5659 32.3437 40.5344C32.6173 40.4949 32.895 40.4962 33.1682 40.5384C33.6028 40.5713 34.0354 40.6268 34.4644 40.7048C34.6652 40.7354 34.8492 40.8369 34.9843 40.9917C35.0773 41.1287 35.0187 41.3699 35.0315 41.6462Z" fill="#4F5C5F"/>
<path d="M13.9559 7.77712C14.3358 7.98842 14.4181 8.37115 14.187 8.61798C14.0586 8.74664 13.9048 8.84589 13.7358 8.90913C13.2547 9.10605 12.7701 9.29951 12.2749 9.45613C12.0763 9.52076 11.863 9.52146 11.664 9.45814C11.5857 9.42641 11.5171 9.37391 11.4654 9.30607C11.4137 9.23823 11.3806 9.15751 11.3697 9.07226C11.3588 8.98702 11.3704 8.90034 11.4033 8.82121C11.4362 8.74208 11.4893 8.67337 11.5569 8.62218C11.7425 8.47328 11.9484 8.353 12.1682 8.26519C12.5879 8.09477 13.0136 7.94038 13.4478 7.81191C13.6149 7.7775 13.7858 7.76581 13.9559 7.77712Z" fill="#4F5C5F"/>
<path d="M1.0411 28.7356C0.877393 28.972 0.682504 29.0994 0.419378 29.046C0.156251 28.9926 -0.0308529 28.7807 0.00422937 28.4992C0.0906955 27.794 0.194008 27.0903 0.332313 26.3947C0.34377 26.3252 0.368716 26.2587 0.405691 26.1991C0.442665 26.1396 0.490921 26.0882 0.547627 26.0479C0.604333 26.0076 0.668346 25.9793 0.735911 25.9647C0.803475 25.95 0.87323 25.9493 0.941082 25.9625C1.20252 25.9996 1.40285 26.2026 1.37447 26.4602C1.29157 27.2218 1.15608 27.9776 1.0411 28.7356Z" fill="#4F5C5F"/>
<path d="M8.39488 36.172C8.11282 36.4946 7.79446 36.5702 7.51805 36.3377C7.34492 36.1907 7.19626 36.0161 7.07785 35.8206C6.87512 35.5006 6.701 35.1626 6.55759 34.8108C6.47358 34.6014 6.46076 34.3692 6.52119 34.1515C6.56306 34.063 6.62491 33.9859 6.70165 33.9265C6.77839 33.8672 6.86784 33.8273 6.96264 33.8101C7.11569 33.8 7.33072 33.9601 7.43061 34.1067C7.73754 34.5593 8.01796 35.0301 8.27038 35.5166C8.36656 35.7083 8.357 35.952 8.39488 36.172Z" fill="#4F5C5F"/>
<path d="M29.2877 1.11622C29.2127 0.932779 29.0661 0.707126 29.0597 0.491685C29.0561 0.211034 29.2786 0.063651 29.5584 0.0224386C30.1509 -0.060136 30.6992 0.094491 31.2309 0.33401C31.3488 0.38227 31.4464 0.471374 31.5065 0.585704C31.5665 0.700033 31.5853 0.832294 31.5594 0.959301C31.5241 1.21704 31.3399 1.41486 31.1074 1.38927C30.5276 1.33861 29.9574 1.22263 29.2877 1.11622Z" fill="#4F5C5F"/>
<path d="M46.86 23.0208C46.9437 22.898 47.0402 22.7849 47.1477 22.6834C47.3658 22.5028 47.6264 22.4474 47.8646 22.6366C48.1028 22.8257 48.13 23.091 47.9878 23.3498C47.8777 23.5507 47.7435 23.7369 47.5883 23.904C47.4929 24.005 47.3638 24.066 47.2265 24.0748C47.0892 24.0835 46.9537 24.0396 46.8466 23.9515C46.6094 23.7532 46.5978 23.4651 46.86 23.0208Z" fill="#4F5C5F"/>
<path d="M8.94603 10.9828C8.87814 10.9472 8.81806 10.8978 8.76943 10.8377C8.72081 10.7776 8.68465 10.7081 8.66316 10.6333C8.64166 10.5585 8.63528 10.48 8.6444 10.4026C8.65352 10.3253 8.67795 10.2506 8.71621 10.1831C8.91881 9.7984 9.47802 9.60572 9.82963 9.80179C9.90005 9.83884 9.96221 9.89033 10.0122 9.95304C10.0622 10.0158 10.099 10.0883 10.1203 10.1662C10.1415 10.2441 10.1468 10.3257 10.1358 10.4057C10.1247 10.4858 10.0976 10.5627 10.0561 10.6316C9.86281 10.9661 9.25714 11.1564 8.94603 10.9828Z" fill="#4F5C5F"/>
<path d="M9.15154 38.4548C9.07124 38.3906 8.99435 38.322 8.92118 38.2494C8.69168 38.0111 8.6767 37.7168 8.88745 37.4817C9.09819 37.2466 9.33111 37.2377 9.5799 37.4177L9.82488 37.5997C10.1834 37.8583 10.2641 38.1064 10.0852 38.4034C9.90626 38.7004 9.62263 38.7436 9.15154 38.4548Z" fill="#4F5C5F"/>
<path d="M35.9919 41.0772C36.034 40.9958 36.0923 40.9242 36.163 40.867C36.2338 40.8098 36.3154 40.7683 36.4027 40.7451C36.49 40.7219 36.5811 40.7175 36.6702 40.7322C36.7593 40.7469 36.8443 40.7803 36.9201 40.8304C36.9899 40.8686 37.0515 40.9207 37.1012 40.9836C37.1509 41.0466 37.1877 41.1191 37.2094 41.1968C37.2311 41.2746 37.2372 41.356 37.2275 41.4362C37.2177 41.5164 37.1923 41.5938 37.1527 41.6638C36.9746 42.0101 36.5711 42.101 36.1887 41.8798C36.1213 41.8432 36.0621 41.7925 36.015 41.7311C35.968 41.6696 35.9341 41.5988 35.9155 41.5232C35.897 41.4475 35.8942 41.3687 35.9073 41.2919C35.9205 41.2151 35.9493 41.142 35.9919 41.0772Z" fill="#4F5C5F"/>
<path d="M26.4562 15.5738C26.0786 15.2865 25.661 15.0558 25.2168 14.889C24.7624 14.7122 24.2814 14.6135 23.7941 14.5971C22.6386 14.6412 21.5409 15.1144 20.7153 15.9242C20.3277 16.3101 20.0193 16.7681 19.8076 17.2725C19.5851 17.8017 19.4723 18.3705 19.4759 18.9446C19.4752 19.5029 19.6023 20.054 19.8474 20.5556C20.0941 21.0524 20.4266 21.5016 20.8295 21.8827C21.236 22.2707 21.7031 22.5898 22.2123 22.8276C22.7141 23.0651 23.2525 23.2159 23.8048 23.2735C24.2886 23.272 24.768 23.1821 25.2194 23.0081C25.6667 22.8425 26.087 22.6117 26.4669 22.3233C26.8146 21.9991 27.2734 21.8205 27.7488 21.8243C27.9836 21.82 28.2169 21.8629 28.4348 21.9505C28.6528 22.038 28.8509 22.1684 29.0175 22.3339C29.1907 22.4975 29.3274 22.6957 29.4189 22.9157C29.5104 23.1357 29.5545 23.3724 29.5483 23.6106C29.564 23.961 29.458 24.306 29.2484 24.5873C29.0866 24.7943 28.9091 24.9886 28.7176 25.1685C28.6486 25.2375 28.492 25.3649 28.2531 25.5534C27.9461 25.7789 27.6171 25.9728 27.2711 26.132C26.794 26.3567 26.2962 26.5345 25.7847 26.6628C25.1292 26.8235 24.4558 26.9002 23.7809 26.8911C22.725 26.8973 21.6796 26.6811 20.7127 26.2567C18.8223 25.4345 17.3233 23.9128 16.5298 22.0101C16.1159 21.0311 15.9055 19.9782 15.9113 18.9154C15.9048 17.8568 16.1153 16.808 16.5298 15.8339C16.9273 14.8938 17.4992 14.0374 18.2151 13.3098C18.9297 12.5864 19.7779 12.0086 20.7127 11.6085C21.6798 11.1966 22.7218 10.9896 23.7729 11.0007C24.4478 10.9916 25.1212 11.0683 25.7768 11.229C26.2879 11.3586 26.7856 11.5363 27.2631 11.7598C27.6069 11.9191 27.9326 12.1149 28.2345 12.3437L28.6884 12.7047C28.883 12.8901 29.0657 13.0878 29.2351 13.2966C29.4475 13.5805 29.5536 13.9298 29.5351 14.2839C29.5394 14.5202 29.4944 14.7549 29.403 14.9728C29.3116 15.1908 29.1758 15.3874 29.0042 15.5499C28.8402 15.7203 28.643 15.8553 28.4248 15.9466C28.2066 16.0379 27.972 16.0835 27.7355 16.0808C27.2599 16.0818 26.8021 15.9003 26.4562 15.5738Z" fill="#C4C4C4"/>
<path d="M30.7109 18.0849C30.7109 17.4214 30.8781 16.941 31.2072 16.6437C31.5417 16.3453 31.9774 16.1858 32.4255 16.1978C32.6234 16.19 32.8208 16.2227 33.0057 16.2939C33.1905 16.3651 33.3588 16.4733 33.5004 16.6118C33.7889 16.4598 34.0984 16.3516 34.4187 16.2907C34.7281 16.2293 35.0428 16.1982 35.3583 16.1978C35.5791 16.1983 35.7976 16.2434 36.0006 16.3305C36.2045 16.4202 36.3899 16.5471 36.5473 16.7047C36.7016 16.8583 36.8274 17.038 36.9189 17.2356C37.0068 17.4345 37.052 17.6497 37.0516 17.8672C37.0575 18.0876 37.0154 18.3067 36.9283 18.5092C36.8413 18.7117 36.7113 18.893 36.5473 19.0404C36.2355 19.341 35.8317 19.528 35.4007 19.5712C35.0711 19.6051 34.7585 19.7342 34.501 19.9428C34.3776 20.0409 34.2762 20.164 34.2035 20.3039C34.1308 20.4439 34.0883 20.5975 34.079 20.755V24.8237C34.079 25.4873 33.9171 25.9854 33.5933 26.318C33.4473 26.4763 33.2699 26.6024 33.0725 26.6883C32.8751 26.7742 32.662 26.818 32.4467 26.817C31.996 26.8377 31.555 26.6815 31.2178 26.3817C30.9073 26.0898 30.7401 25.5855 30.7109 24.845V18.0849Z" fill="#C4C4C4"/>
<path d="M42.5138 29.3595C42.4175 29.7358 42.2126 30.0755 41.9246 30.3362C41.6363 30.5875 41.2637 30.7202 40.8815 30.7078C40.6555 30.7133 40.4306 30.6741 40.2198 30.5926C40.0089 30.5111 39.8162 30.3888 39.6526 30.2327C39.4877 30.0792 39.3572 29.8924 39.2698 29.6847C39.1824 29.4769 39.1401 29.253 39.1457 29.0278C39.1454 28.9081 39.1633 28.7891 39.1988 28.6747C39.2333 28.5633 39.2625 28.4677 39.2917 28.3828C39.5571 27.6237 39.7562 27.0371 39.8995 26.6284C40.0428 26.2197 40.149 25.9198 40.21 25.726C40.2711 25.5322 40.3109 25.4022 40.3241 25.3305L37.9699 18.5625C37.8796 18.3608 37.837 18.141 37.8452 17.9202C37.8385 17.6967 37.8783 17.4742 37.9619 17.2668C38.0455 17.0594 38.1711 16.8716 38.3309 16.7152C38.4894 16.558 38.6782 16.4347 38.8857 16.3526C39.0933 16.2705 39.3154 16.2313 39.5385 16.2374C39.9332 16.2215 40.3186 16.3595 40.6134 16.6223C40.8883 16.8791 41.0882 17.2056 41.192 17.5672L42.0785 20.7017L42.9889 17.5884C43.0719 17.2091 43.2747 16.8667 43.5675 16.6117C43.8533 16.3631 44.2213 16.2298 44.6 16.2374C45.0566 16.228 45.4985 16.3998 45.8288 16.7152C45.9933 16.869 46.1233 17.0559 46.2102 17.2636C46.2971 17.4713 46.339 17.6951 46.3331 17.9202C46.3276 18.1023 46.2898 18.282 46.2216 18.451C46.1447 18.6527 46.0916 18.8013 46.065 18.8995L42.5138 29.3595Z" fill="#C4C4C4"/>
<path d="M47.2542 18.2521C47.2277 17.7363 47.3942 17.2291 47.7213 16.8294C47.8772 16.6532 48.0695 16.5129 48.2848 16.418C48.5002 16.3232 48.7335 16.2761 48.9687 16.28C49.1889 16.2781 49.407 16.3214 49.6097 16.4073C49.8124 16.4931 49.9953 16.6196 50.1472 16.779C50.5158 16.6081 50.8997 16.4722 51.2938 16.3729C51.7279 16.2658 52.1737 16.2132 52.6208 16.2163C53.327 16.2124 54.0264 16.3542 54.6751 16.633C55.304 16.9021 55.8753 17.2895 56.3579 17.7743C56.8448 18.2643 57.2339 18.8426 57.5045 19.4783C57.7847 20.1343 57.9291 20.8404 57.9291 21.5538C57.9291 22.2672 57.7847 22.9732 57.5045 23.6293C57.2338 24.2641 56.8447 24.8415 56.3579 25.3306C55.876 25.8169 55.3046 26.2053 54.6751 26.4746C54.0262 26.7525 53.3268 26.8935 52.6208 26.8886C52.2714 26.8908 51.9225 26.8633 51.5778 26.8063C51.2466 26.7494 50.9238 26.6513 50.617 26.5144V29.0066C50.617 29.7002 50.4551 30.2054 50.1313 30.5221C49.9794 30.6771 49.7975 30.7995 49.5967 30.8816C49.3959 30.9638 49.1804 31.004 48.9634 30.9999C48.3583 30.9999 47.9204 30.8221 47.6523 30.4691C47.3608 30.0381 47.2191 29.5234 47.2489 29.004L47.2542 18.2521ZM54.5876 21.5538C54.5867 21.1619 54.4706 20.7789 54.2537 20.4525C54.0368 20.1261 53.7288 19.8706 53.3679 19.7179C53.007 19.5651 52.6092 19.5219 52.2239 19.5935C51.8386 19.6651 51.4828 19.8484 51.2009 20.1206C50.9127 20.3989 50.7151 20.7576 50.6339 21.1499C50.5526 21.5422 50.5914 21.9498 50.7453 22.3197C50.8992 22.6896 51.1609 23.0046 51.4964 23.2235C51.8319 23.4424 52.2256 23.5552 52.6261 23.5471C52.8878 23.5519 53.1476 23.5034 53.3899 23.4045C53.6321 23.3057 53.8517 23.1585 54.0353 22.972C54.2188 22.7855 54.3624 22.5636 54.4574 22.3197C54.5523 22.0759 54.5966 21.8153 54.5876 21.5538Z" fill="#C4C4C4"/>
<path d="M59.7657 15.5528C59.7657 14.8609 59.9312 14.3593 60.262 14.0479C60.5904 13.7372 61.0284 13.5693 61.4803 13.5808C61.6962 13.5774 61.9106 13.6169 62.1111 13.6971C62.3116 13.7773 62.4941 13.8965 62.6481 14.0479C62.9684 14.3575 63.1294 14.8592 63.1312 15.5528V16.3623H63.5452C64.1663 16.3623 64.621 16.5109 64.9094 16.8082C65.0507 16.9524 65.1615 17.1235 65.2353 17.3113C65.3092 17.4992 65.3446 17.6999 65.3394 17.9017C65.345 18.1077 65.3096 18.3128 65.2353 18.5051C65.1611 18.6973 65.0494 18.8729 64.9068 19.0217C64.6166 19.3279 64.1619 19.4809 63.5426 19.4809H63.1365V24.8555C63.1365 25.5456 62.9755 26.0473 62.6534 26.3604C62.4994 26.5118 62.3169 26.631 62.1164 26.7112C61.9159 26.7914 61.7015 26.831 61.4856 26.8276C61.0337 26.8391 60.5957 26.6711 60.2673 26.3604C59.9329 26.0473 59.7657 25.5456 59.7657 24.8555V19.4783H59.3331C58.6996 19.4783 58.2378 19.3252 57.9476 19.0191C57.805 18.8703 57.6933 18.6947 57.6191 18.5024C57.5448 18.3102 57.5094 18.1051 57.515 17.899C57.5105 17.6975 57.5465 17.4972 57.6208 17.3098C57.6951 17.1224 57.8062 16.9519 57.9476 16.8082C58.2378 16.5109 58.6996 16.3623 59.3331 16.3623H59.7657V15.5528Z" fill="#C4C4C4"/>
<path d="M65.1828 21.5326C65.1788 20.8198 65.3197 20.1137 65.5969 19.457C66.1268 18.1719 67.1441 17.1489 68.4262 16.6118C69.084 16.3385 69.7894 16.1978 70.5017 16.1978C71.2141 16.1978 71.9194 16.3385 72.5773 16.6118C73.8581 17.1509 74.8747 18.1732 75.4066 19.457C75.9552 20.7937 75.9552 22.2927 75.4066 23.6293C75.1389 24.2663 74.7535 24.8471 74.2706 25.3413C73.7782 25.8411 73.1913 26.2381 72.544 26.509C71.8968 26.78 71.2021 26.9195 70.5004 26.9195C69.7987 26.9195 69.1041 26.78 68.4568 26.509C67.8095 26.2381 67.2226 25.8411 66.7302 25.3413C66.2472 24.8477 65.8626 24.2667 65.5969 23.6293C65.3181 22.9657 65.1773 22.2523 65.1828 21.5326ZM68.5695 21.5326C68.5634 21.7916 68.6096 22.0493 68.7054 22.2901C68.8012 22.5309 68.9445 22.7499 69.1269 22.934C69.4012 23.2089 69.7517 23.3953 70.133 23.4691C70.5143 23.5429 70.909 23.5007 71.2661 23.348C71.4966 23.2504 71.7065 23.1099 71.8845 22.934C72.2496 22.5631 72.4542 22.0636 72.4542 21.5432C72.4542 21.0228 72.2496 20.5233 71.8845 20.1524C71.7066 19.9757 71.4968 19.8343 71.2661 19.7357C71.028 19.6334 70.7715 19.581 70.5124 19.5818C70.2545 19.5755 69.9981 19.623 69.7595 19.7212C69.521 19.8195 69.3056 19.9663 69.1269 20.1524C68.946 20.3332 68.8034 20.5486 68.7077 20.7858C68.6119 21.0229 68.5649 21.2769 68.5695 21.5326Z" fill="#C4C4C4"/>
<path d="M78.8137 16C79.8153 16 80.6273 16.812 80.6273 17.8137V19.2501L85.1075 12.3759C85.1898 12.2511 85.288 12.1104 85.3968 11.9618C85.5177 11.7997 85.6648 11.6588 85.8321 11.5451C86.0334 11.4093 86.2522 11.3013 86.4824 11.224C86.7786 11.1273 87.0891 11.0815 87.4007 11.0886C87.8301 11.061 88.2533 11.203 88.5791 11.4841C88.7094 11.6022 88.8134 11.7464 88.8843 11.9074C88.9552 12.0683 88.9914 12.2424 88.9905 12.4183C88.9854 12.6127 88.9505 12.8051 88.887 12.989C88.8127 13.213 88.7092 13.4263 88.5791 13.6233L80.9989 25.3334C80.7861 25.6799 80.5251 25.9944 80.2239 26.2676C79.9463 26.5127 79.6183 26.6939 79.2631 26.7984C79.2407 26.7972 79.2188 26.8048 79.2021 26.8197H79.0985C79.0846 26.8161 79.07 26.8161 79.0561 26.8197C79.0429 26.8221 79.0294 26.8221 79.0163 26.8197H78.6447C78.4251 26.8377 78.2042 26.81 77.9958 26.7383C77.7875 26.6666 77.5963 26.5524 77.4344 26.403C77.3031 26.2689 77.1999 26.1099 77.1311 25.9353C77.0622 25.7607 76.9955 25.5811 77 25.3935V25.1652V24.6344V17.8137C77 16.812 77.812 16 78.8137 16Z" fill="#C4C4C4"/>
<path d="M91.3102 23.9398C91.6374 23.9503 91.9644 23.9145 92.2816 23.8337C92.4873 23.7727 92.6871 23.6937 92.8788 23.5975C93.046 23.5125 93.2106 23.4356 93.3751 23.3639C93.5859 23.2836 93.8107 23.2466 94.036 23.2551C94.2086 23.2436 94.3817 23.267 94.545 23.324C94.7082 23.381 94.8583 23.4704 94.9862 23.5868C95.1001 23.7094 95.1881 23.8537 95.2451 24.011C95.3021 24.1683 95.3269 24.3354 95.318 24.5025C95.321 24.7414 95.2725 24.9781 95.1759 25.1965C95.0792 25.415 94.9367 25.6101 94.7579 25.7685C94.2865 26.2249 93.702 26.5474 93.0646 26.7028C92.4418 26.8427 91.8052 26.9121 91.1669 26.9098C90.4487 26.9145 89.7374 26.7699 89.0781 26.4852C88.446 26.2103 87.8715 25.8186 87.3847 25.3306C86.8982 24.8394 86.5123 24.2579 86.2488 23.6187C85.9728 22.9506 85.833 22.2341 85.8374 21.5113C85.8334 20.812 85.9681 20.1188 86.2337 19.4719C86.4993 18.825 86.8905 18.2372 87.3847 17.7424C87.8733 17.2626 88.4477 16.8791 89.0781 16.6118C89.7389 16.333 90.4497 16.1921 91.1669 16.1977C91.8276 16.1919 92.4831 16.3154 93.0965 16.5613C93.6819 16.7965 94.221 17.1334 94.6889 17.5566C95.1591 17.9821 95.5446 18.4927 95.8249 19.0615C96.1118 19.644 96.2916 20.2733 96.3557 20.9194V21.0866C96.36 21.3027 96.3182 21.5172 96.2331 21.7158C96.1479 21.9144 96.0215 22.0926 95.8621 22.2385C95.5461 22.5434 95.1226 22.7112 94.6836 22.7057H89.4099C89.4192 22.8435 89.469 22.9756 89.5532 23.0852C89.6624 23.2385 89.7949 23.3738 89.946 23.486C90.1286 23.6219 90.3309 23.7293 90.5458 23.8045C90.791 23.8929 91.0496 23.9386 91.3102 23.9398ZM92.9425 20.4311C92.9425 20.2108 92.7806 19.9799 92.4568 19.7357C92.0653 19.4745 91.5997 19.347 91.1297 19.3721C90.8755 19.3681 90.623 19.414 90.3866 19.5074C90.1871 19.5854 89.9995 19.6908 89.8292 19.8206C89.6937 19.919 89.5746 20.0381 89.4762 20.1736C89.4124 20.2495 89.3702 20.3412 89.3541 20.439L92.9425 20.4311Z" fill="#C4C4C4"/>
<path d="M97.3405 18.0849C97.3405 17.4214 97.5059 16.941 97.8368 16.6437C98.1708 16.3446 98.6068 16.185 99.055 16.1978C99.253 16.19 99.4504 16.2227 99.6352 16.2939C99.8201 16.3651 99.9884 16.4733 100.13 16.6118C100.418 16.4594 100.728 16.3512 101.048 16.2907C101.358 16.2293 101.672 16.1982 101.988 16.1978C102.208 16.1982 102.425 16.2434 102.627 16.3305C103.037 16.5108 103.364 16.8373 103.546 17.2462C103.679 17.5484 103.714 17.8844 103.648 18.2078C103.581 18.5311 103.416 18.8258 103.174 19.051C102.863 19.3511 102.46 19.538 102.03 19.5818C101.701 19.6157 101.388 19.7448 101.131 19.9534C101.007 20.0519 100.906 20.1749 100.833 20.3148C100.76 20.4546 100.716 20.6081 100.706 20.7656V24.8344C100.706 25.4979 100.547 25.9969 100.223 26.3286C100.077 26.4869 99.8995 26.613 99.7021 26.6989C99.5047 26.7848 99.2915 26.8286 99.0763 26.8276C98.6255 26.8488 98.1843 26.6926 97.8474 26.3923C97.5377 26.1004 97.3688 25.5881 97.3405 24.8556V18.0849Z" fill="#C4C4C4"/>
<path d="M104.217 24.4601C104.199 24.0626 104.316 23.6707 104.549 23.348C104.68 23.1982 104.844 23.0816 105.029 23.0078C105.213 22.9339 105.413 22.905 105.611 22.9233C105.799 22.9202 105.985 22.9748 106.142 23.0799C106.292 23.183 106.437 23.2938 106.577 23.4117C106.712 23.5285 106.842 23.6399 106.978 23.7435C107.097 23.8427 107.247 23.8979 107.402 23.9001C107.636 23.9001 107.753 23.8116 107.753 23.6346C107.761 23.5035 107.72 23.3739 107.638 23.271C107.559 23.1781 107.46 23.1038 107.349 23.0534C107.232 22.9977 107.111 22.9489 106.988 22.9074C106.882 22.8735 106.778 22.8318 106.678 22.7827L106.577 22.7216C106.37 22.6101 106.139 22.4748 105.884 22.3155C105.615 22.1434 105.368 21.9383 105.149 21.7051C104.593 21.1016 104.296 20.3037 104.323 19.4836C104.302 19.0468 104.368 18.6101 104.519 18.1997C104.67 17.7892 104.902 17.4134 105.202 17.0948C105.514 16.7918 105.885 16.5562 106.292 16.4028C106.698 16.2493 107.133 16.1813 107.567 16.203C107.954 16.2038 108.338 16.2702 108.703 16.3994C109.062 16.5257 109.4 16.7046 109.706 16.9303C109.989 17.1403 110.23 17.4013 110.417 17.7C110.588 17.9666 110.679 18.2755 110.683 18.5918C110.702 18.9954 110.594 19.3949 110.372 19.733C110.254 19.8847 110.099 20.0043 109.922 20.0808C109.746 20.1573 109.553 20.1883 109.361 20.171C109.113 20.181 108.867 20.1232 108.65 20.0038C108.438 19.8708 108.257 19.6944 108.119 19.4862C108.092 19.4437 108.039 19.3747 107.965 19.2765C107.933 19.2325 107.891 19.1966 107.843 19.1717C107.794 19.1468 107.741 19.1336 107.686 19.1332C107.493 19.1332 107.378 19.173 107.344 19.258C107.307 19.3571 107.289 19.4627 107.293 19.5685C107.293 19.6242 107.339 19.6906 107.426 19.7649C107.523 19.8462 107.627 19.919 107.737 19.9825L108.068 20.1816C108.138 20.2243 108.209 20.2624 108.283 20.2957L108.368 20.3355C108.615 20.4736 108.873 20.6355 109.141 20.8133C109.418 20.9995 109.669 21.2237 109.884 21.4795C110.127 21.7564 110.322 22.0722 110.46 22.4137C110.612 22.8253 110.685 23.2622 110.675 23.701C110.677 24.1317 110.593 24.5586 110.428 24.9564C110.271 25.338 110.043 25.6865 109.756 25.9836C109.467 26.2795 109.122 26.5145 108.74 26.675C108.359 26.8354 107.949 26.918 107.535 26.9178C107.118 26.9193 106.703 26.8703 106.298 26.7718C105.922 26.688 105.563 26.5408 105.236 26.3366C104.936 26.1453 104.685 25.8862 104.504 25.5801C104.307 25.2405 104.207 24.8527 104.217 24.4601Z" fill="#C4C4C4"/>
<path d="M117.148 23.9398C117.475 23.9505 117.801 23.9147 118.117 23.8337C118.323 23.7727 118.524 23.6936 118.717 23.5975C118.881 23.5125 119.049 23.4356 119.213 23.3639C119.424 23.2836 119.649 23.2466 119.874 23.2551C120.047 23.2439 120.22 23.2675 120.383 23.3245C120.546 23.3815 120.696 23.4707 120.824 23.5868C120.938 23.7096 121.025 23.8539 121.082 24.0112C121.139 24.1685 121.163 24.3356 121.153 24.5025C121.156 24.7411 121.108 24.9776 121.012 25.196C120.916 25.4144 120.774 25.6096 120.596 25.7685C120.124 26.224 119.54 26.5463 118.903 26.7028C118.279 26.8428 117.641 26.9123 117.002 26.9098C116.285 26.9142 115.575 26.7696 114.916 26.4852C114.284 26.2109 113.709 25.8192 113.223 25.3306C112.736 24.84 112.35 24.2583 112.087 23.6187C111.809 22.9511 111.668 22.2344 111.673 21.5113C111.67 20.812 111.806 20.119 112.072 19.4722C112.338 18.8254 112.729 18.2376 113.223 17.7424C113.711 17.262 114.285 16.8784 114.916 16.6118C115.576 16.3332 116.286 16.1923 117.002 16.1977C117.664 16.1919 118.32 16.3154 118.934 16.5613C119.519 16.7977 120.058 17.1346 120.527 17.5566C120.997 17.9821 121.383 18.4927 121.663 19.0615C121.95 19.644 122.13 20.2733 122.194 20.9194V21.0866C122.198 21.3029 122.156 21.5177 122.07 21.7163C121.985 21.915 121.858 22.0931 121.697 22.2385C121.383 22.5437 120.96 22.7117 120.522 22.7057H115.237C115.247 22.8435 115.296 22.9756 115.381 23.0852C115.489 23.2391 115.622 23.3745 115.773 23.486C115.955 23.623 116.158 23.7304 116.373 23.8045C116.622 23.8941 116.884 23.9399 117.148 23.9398ZM118.778 20.4311C118.778 20.2108 118.616 19.9799 118.292 19.7357C117.901 19.4743 117.435 19.3468 116.965 19.3721C116.71 19.3681 116.457 19.4141 116.219 19.5074C116.02 19.5854 115.832 19.6908 115.662 19.8206C115.528 19.9196 115.41 20.0387 115.312 20.1736C115.247 20.2496 115.204 20.3411 115.187 20.439L118.778 20.4311Z" fill="#C4C4C4"/>
</svg>
